<svg width="523" height="550" viewBox="0 0 523 550" fill="none" xmlns="http://www.w3.org/2000/svg">
<path d="M17 175.71C16.8 175.49 16.51 175.26 16.13 175.02C15.75 174.76 15.3 174.52 14.78 174.3C14.26 174.08 13.7 173.9 13.1 173.76C12.5 173.62 11.88 173.55 11.24 173.55C9.84 173.55 8.8 173.81 8.12 174.33C7.44 174.85 7.1 175.57 7.1 176.49C7.1 177.17 7.29 177.71 7.67 178.11C8.05 178.49 8.63 178.81 9.41 179.07C10.19 179.33 11.17 179.61 12.35 179.91C13.79 180.25 15.04 180.66 16.1 181.14C17.16 181.6 17.97 182.22 18.53 183C19.09 183.78 19.37 184.81 19.37 186.09C19.37 187.17 19.17 188.1 18.77 188.88C18.37 189.66 17.81 190.3 17.09 190.8C16.37 191.28 15.54 191.64 14.6 191.88C13.66 192.1 12.65 192.21 11.57 192.21C10.51 192.21 9.45 192.1 8.39 191.88C7.35 191.66 6.35 191.34 5.39 190.92C4.45 190.48 3.58 189.95 2.78 189.33L4.31 186.45C4.57 186.71 4.94 187 5.42 187.32C5.92 187.62 6.49 187.91 7.13 188.19C7.79 188.47 8.5 188.71 9.26 188.91C10.04 189.09 10.83 189.18 11.63 189.18C12.97 189.18 13.99 188.95 14.69 188.49C15.41 188.01 15.77 187.33 15.77 186.45C15.77 185.73 15.54 185.16 15.08 184.74C14.62 184.3 13.95 183.93 13.07 183.63C12.19 183.33 11.14 183.03 9.92 182.73C8.52 182.35 7.35 181.94 6.41 181.5C5.47 181.04 4.76 180.46 4.28 179.76C3.82 179.04 3.59 178.13 3.59 177.03C3.59 175.63 3.93 174.45 4.61 173.49C5.29 172.51 6.21 171.78 7.37 171.3C8.55 170.8 9.87 170.55 11.33 170.55C12.29 170.55 13.2 170.66 14.06 170.88C14.92 171.08 15.72 171.36 16.46 171.72C17.22 172.08 17.91 172.49 18.53 172.95L17 175.71ZM29.3698 192.3C28.1298 192.3 27.0198 192.09 26.0398 191.67C25.0598 191.23 24.2098 190.63 23.4898 189.87C22.7898 189.11 22.2498 188.25 21.8698 187.29C21.4898 186.31 21.2998 185.27 21.2998 184.17C21.2998 183.07 21.4898 182.03 21.8698 181.05C22.2498 180.07 22.7898 179.21 23.4898 178.47C24.2098 177.71 25.0598 177.12 26.0398 176.7C27.0398 176.26 28.1498 176.04 29.3698 176.04C30.5898 176.04 31.6898 176.26 32.6698 176.7C33.6698 177.12 34.5198 177.71 35.2198 178.47C35.9398 179.21 36.4898 180.07 36.8698 181.05C37.2498 182.03 37.4398 183.07 37.4398 184.17C37.4398 185.27 37.2498 186.31 36.8698 187.29C36.4898 188.25 35.9398 189.11 35.2198 189.87C34.5198 190.63 33.6698 191.23 32.6698 191.67C31.6898 192.09 30.5898 192.3 29.3698 192.3ZM24.6898 184.2C24.6898 185.2 24.8998 186.1 25.3198 186.9C25.7398 187.7 26.2998 188.33 26.9998 188.79C27.6998 189.25 28.4898 189.48 29.3698 189.48C30.2298 189.48 31.0098 189.25 31.7098 188.79C32.4298 188.31 32.9998 187.67 33.4198 186.87C33.8398 186.05 34.0498 185.15 34.0498 184.17C34.0498 183.17 33.8398 182.27 33.4198 181.47C32.9998 180.67 32.4298 180.04 31.7098 179.58C31.0098 179.1 30.2298 178.86 29.3698 178.86C28.4898 178.86 27.6998 179.1 26.9998 179.58C26.2998 180.06 25.7398 180.7 25.3198 181.5C24.8998 182.28 24.6898 183.18 24.6898 184.2ZM54.4367 192H51.1367V183.21C51.1367 181.75 50.8967 180.68 50.4167 180C49.9567 179.32 49.2667 178.98 48.3467 178.98C47.7067 178.98 47.0667 179.14 46.4267 179.46C45.8067 179.78 45.2467 180.22 44.7467 180.78C44.2467 181.32 43.8867 181.95 43.6667 182.67V192H40.3667V176.31H43.3667V179.46C43.7667 178.76 44.2867 178.16 44.9267 177.66C45.5867 177.14 46.3267 176.74 47.1467 176.46C47.9667 176.18 48.8367 176.04 49.7567 176.04C50.6967 176.04 51.4667 176.21 52.0667 176.55C52.6867 176.89 53.1667 177.36 53.5067 177.96C53.8667 178.54 54.1067 179.22 54.2267 180C54.3667 180.76 54.4367 181.57 54.4367 182.43V192ZM64.4771 192.15C63.4171 192.15 62.4471 191.94 61.5671 191.52C60.6871 191.08 59.9271 190.49 59.2871 189.75C58.6671 189.01 58.1771 188.16 57.8171 187.2C57.4771 186.24 57.3071 185.23 57.3071 184.17C57.3071 183.05 57.4871 182 57.8471 181.02C58.2071 180.04 58.7071 179.18 59.3471 178.44C60.0071 177.68 60.7771 177.09 61.6571 176.67C62.5371 176.25 63.5171 176.04 64.5971 176.04C65.8571 176.04 66.9571 176.34 67.8971 176.94C68.8571 177.54 69.6471 178.32 70.2671 179.28V176.31H73.1771V191.55C73.1771 193.07 72.8071 194.36 72.0671 195.42C71.3471 196.48 70.3571 197.29 69.0971 197.85C67.8371 198.41 66.4171 198.69 64.8371 198.69C63.0971 198.69 61.6571 198.39 60.5171 197.79C59.3771 197.19 58.4071 196.37 57.6071 195.33L59.4671 193.59C60.0671 194.43 60.8371 195.07 61.7771 195.51C62.7371 195.95 63.7571 196.17 64.8371 196.17C65.7371 196.17 66.5671 196 67.3271 195.66C68.1071 195.34 68.7271 194.83 69.1871 194.13C69.6471 193.45 69.8771 192.59 69.8771 191.55V189.15C69.3171 190.09 68.5471 190.83 67.5671 191.37C66.5871 191.89 65.5571 192.15 64.4771 192.15ZM65.5571 189.48C66.0571 189.48 66.5371 189.4 66.9971 189.24C67.4571 189.06 67.8771 188.83 68.2571 188.55C68.6571 188.25 68.9971 187.92 69.2771 187.56C69.5571 187.18 69.7571 186.78 69.8771 186.36V182.25C69.6171 181.57 69.2471 180.98 68.7671 180.48C68.2871 179.96 67.7471 179.56 67.1471 179.28C66.5471 179 65.9371 178.86 65.3171 178.86C64.5971 178.86 63.9471 179.02 63.3671 179.34C62.8071 179.64 62.3271 180.05 61.9271 180.57C61.5271 181.07 61.2171 181.64 60.9971 182.28C60.7771 182.92 60.6671 183.58 60.6671 184.26C60.6671 184.98 60.7871 185.65 61.0271 186.27C61.2871 186.89 61.6371 187.45 62.0771 187.95C62.5171 188.43 63.0371 188.81 63.6371 189.09C64.2371 189.35 64.8771 189.48 65.5571 189.48ZM98.6164 192H95.3164V183.21C95.3164 181.75 95.0764 180.68 94.5964 180C94.1364 179.32 93.4464 178.98 92.5264 178.98C91.8864 178.98 91.2464 179.14 90.6064 179.46C89.9864 179.78 89.4264 180.22 88.9264 180.78C88.4264 181.32 88.0664 181.95 87.8464 182.67V192H84.5464V176.31H87.5464V179.46C87.9464 178.76 88.4664 178.16 89.1064 177.66C89.7664 177.14 90.5064 176.74 91.3264 176.46C92.1464 176.18 93.0164 176.04 93.9364 176.04C94.8764 176.04 95.6464 176.21 96.2464 176.55C96.8664 176.89 97.3464 177.36 97.6864 177.96C98.0464 178.54 98.2864 179.22 98.4064 180C98.5464 180.76 98.6164 181.57 98.6164 182.43V192ZM101.307 187.41C101.307 186.41 101.587 185.54 102.147 184.8C102.727 184.04 103.517 183.46 104.517 183.06C105.517 182.64 106.677 182.43 107.997 182.43C108.697 182.43 109.407 182.48 110.127 182.58C110.867 182.68 111.517 182.84 112.077 183.06V182.07C112.077 180.97 111.747 180.11 111.087 179.49C110.427 178.87 109.477 178.56 108.237 178.56C107.357 178.56 106.527 178.72 105.747 179.04C104.967 179.34 104.137 179.77 103.257 180.33L102.147 178.11C103.187 177.41 104.227 176.89 105.267 176.55C106.327 176.21 107.437 176.04 108.597 176.04C110.697 176.04 112.347 176.6 113.547 177.72C114.767 178.82 115.377 180.39 115.377 182.43V188.28C115.377 188.66 115.437 188.93 115.557 189.09C115.697 189.25 115.927 189.34 116.247 189.36V192C115.947 192.06 115.677 192.1 115.437 192.12C115.197 192.14 114.997 192.15 114.837 192.15C114.137 192.15 113.607 191.98 113.247 191.64C112.887 191.3 112.677 190.9 112.617 190.44L112.527 189.54C111.847 190.42 110.977 191.1 109.917 191.58C108.857 192.06 107.787 192.3 106.707 192.3C105.667 192.3 104.737 192.09 103.917 191.67C103.097 191.23 102.457 190.64 101.997 189.9C101.537 189.16 101.307 188.33 101.307 187.41ZM111.297 188.37C111.537 188.11 111.727 187.85 111.867 187.59C112.007 187.33 112.077 187.1 112.077 186.9V185.1C111.517 184.88 110.927 184.72 110.307 184.62C109.687 184.5 109.077 184.44 108.477 184.44C107.277 184.44 106.297 184.68 105.537 185.16C104.797 185.64 104.427 186.3 104.427 187.14C104.427 187.6 104.547 188.04 104.787 188.46C105.047 188.88 105.407 189.22 105.867 189.48C106.347 189.74 106.937 189.87 107.637 189.87C108.357 189.87 109.047 189.73 109.707 189.45C110.367 189.17 110.897 188.81 111.297 188.37ZM143.38 192H140.08V183.21C140.08 181.75 139.84 180.68 139.36 180C138.88 179.32 138.18 178.98 137.26 178.98C136.34 178.98 135.48 179.33 134.68 180.03C133.9 180.71 133.35 181.6 133.03 182.7V192H129.73V183.21C129.73 181.75 129.49 180.68 129.01 180C128.53 179.32 127.84 178.98 126.94 178.98C126.02 178.98 125.16 179.32 124.36 180C123.58 180.68 123.02 181.57 122.68 182.67V192H119.38V176.31H122.38V179.46C123 178.36 123.81 177.52 124.81 176.94C125.83 176.34 126.99 176.04 128.29 176.04C129.59 176.04 130.61 176.38 131.35 177.06C132.11 177.74 132.58 178.59 132.76 179.61C133.44 178.45 134.27 177.57 135.25 176.97C136.25 176.35 137.39 176.04 138.67 176.04C139.59 176.04 140.36 176.21 140.98 176.55C141.6 176.89 142.08 177.36 142.42 177.96C142.76 178.54 143 179.22 143.14 180C143.3 180.76 143.38 181.57 143.38 182.43V192ZM154.293 192.3C153.073 192.3 151.963 192.09 150.963 191.67C149.983 191.23 149.133 190.64 148.413 189.9C147.693 189.14 147.133 188.28 146.733 187.32C146.353 186.34 146.163 185.3 146.163 184.2C146.163 182.72 146.503 181.37 147.183 180.15C147.863 178.91 148.813 177.92 150.033 177.18C151.253 176.42 152.683 176.04 154.323 176.04C155.963 176.04 157.373 176.42 158.553 177.18C159.753 177.92 160.683 178.9 161.343 180.12C162.003 181.34 162.333 182.65 162.333 184.05C162.333 184.29 162.323 184.52 162.303 184.74C162.283 184.94 162.263 185.11 162.243 185.25H149.673C149.733 186.17 149.983 186.98 150.423 187.68C150.883 188.36 151.463 188.9 152.163 189.3C152.863 189.68 153.613 189.87 154.413 189.87C155.293 189.87 156.123 189.65 156.903 189.21C157.703 188.77 158.243 188.19 158.523 187.47L161.343 188.28C161.003 189.04 160.483 189.73 159.783 190.35C159.103 190.95 158.293 191.43 157.353 191.79C156.413 192.13 155.393 192.3 154.293 192.3ZM149.583 183.06H159.063C159.003 182.16 158.743 181.37 158.283 180.69C157.843 179.99 157.273 179.45 156.573 179.07C155.893 178.67 155.133 178.47 154.293 178.47C153.473 178.47 152.713 178.67 152.013 179.07C151.333 179.45 150.773 179.99 150.333 180.69C149.893 181.37 149.643 182.16 149.583 183.06Z" fill="#D3D9E9"/>
<line x1="191" y1="194.5" x2="491" y2="194.5" stroke="#D3D9E9"/>
<path d="M17 251.71C16.8 251.49 16.51 251.26 16.13 251.02C15.75 250.76 15.3 250.52 14.78 250.3C14.26 250.08 13.7 249.9 13.1 249.76C12.5 249.62 11.88 249.55 11.24 249.55C9.84 249.55 8.8 249.81 8.12 250.33C7.44 250.85 7.1 251.57 7.1 252.49C7.1 253.17 7.29 253.71 7.67 254.11C8.05 254.49 8.63 254.81 9.41 255.07C10.19 255.33 11.17 255.61 12.35 255.91C13.79 256.25 15.04 256.66 16.1 257.14C17.16 257.6 17.97 258.22 18.53 259C19.09 259.78 19.37 260.81 19.37 262.09C19.37 263.17 19.17 264.1 18.77 264.88C18.37 265.66 17.81 266.3 17.09 266.8C16.37 267.28 15.54 267.64 14.6 267.88C13.66 268.1 12.65 268.21 11.57 268.21C10.51 268.21 9.45 268.1 8.39 267.88C7.35 267.66 6.35 267.34 5.39 266.92C4.45 266.48 3.58 265.95 2.78 265.33L4.31 262.45C4.57 262.71 4.94 263 5.42 263.32C5.92 263.62 6.49 263.91 7.13 264.19C7.79 264.47 8.5 264.71 9.26 264.91C10.04 265.09 10.83 265.18 11.63 265.18C12.97 265.18 13.99 264.95 14.69 264.49C15.41 264.01 15.77 263.33 15.77 262.45C15.77 261.73 15.54 261.16 15.08 260.74C14.62 260.3 13.95 259.93 13.07 259.63C12.19 259.33 11.14 259.03 9.92 258.73C8.52 258.35 7.35 257.94 6.41 257.5C5.47 257.04 4.76 256.46 4.28 255.76C3.82 255.04 3.59 254.13 3.59 253.03C3.59 251.63 3.93 250.45 4.61 249.49C5.29 248.51 6.21 247.78 7.37 247.3C8.55 246.8 9.87 246.55 11.33 246.55C12.29 246.55 13.2 246.66 14.06 246.88C14.92 247.08 15.72 247.36 16.46 247.72C17.22 248.08 17.91 248.49 18.53 248.95L17 251.71ZM22.3198 268V252.31H25.6198V268H22.3198ZM22.3198 249.73V246.1H25.6198V249.73H22.3198ZM43.6555 268H40.3555V259.21C40.3555 257.75 40.1155 256.68 39.6355 256C39.1755 255.32 38.4855 254.98 37.5655 254.98C36.9255 254.98 36.2855 255.14 35.6455 255.46C35.0255 255.78 34.4655 256.22 33.9655 256.78C33.4655 257.32 33.1055 257.95 32.8855 258.67V268H29.5855V252.31H32.5855V255.46C32.9855 254.76 33.5055 254.16 34.1455 253.66C34.8055 253.14 35.5455 252.74 36.3655 252.46C37.1855 252.18 38.0555 252.04 38.9755 252.04C39.9155 252.04 40.6855 252.21 41.2855 252.55C41.9055 252.89 42.3855 253.36 42.7255 253.96C43.0855 254.54 43.3255 255.22 43.4455 256C43.5855 256.76 43.6555 257.57 43.6555 258.43V268ZM53.6959 268.15C52.6359 268.15 51.6659 267.94 50.7859 267.52C49.9059 267.08 49.1459 266.49 48.5059 265.75C47.8859 265.01 47.3959 264.16 47.0359 263.2C46.6959 262.24 46.5259 261.23 46.5259 260.17C46.5259 259.05 46.7059 258 47.0659 257.02C47.4259 256.04 47.9259 255.18 48.5659 254.44C49.2259 253.68 49.9959 253.09 50.8759 252.67C51.7559 252.25 52.7359 252.04 53.8159 252.04C55.0759 252.04 56.1759 252.34 57.1159 252.94C58.0759 253.54 58.8659 254.32 59.4859 255.28V252.31H62.3959V267.55C62.3959 269.07 62.0259 270.36 61.2859 271.42C60.5659 272.48 59.5759 273.29 58.3159 273.85C57.0559 274.41 55.6359 274.69 54.0559 274.69C52.3159 274.69 50.8759 274.39 49.7359 273.79C48.5959 273.19 47.6259 272.37 46.8259 271.33L48.6859 269.59C49.2859 270.43 50.0559 271.07 50.9959 271.51C51.9559 271.95 52.9759 272.17 54.0559 272.17C54.9559 272.17 55.7859 272 56.5459 271.66C57.3259 271.34 57.9459 270.83 58.4059 270.13C58.8659 269.45 59.0959 268.59 59.0959 267.55V265.15C58.5359 266.09 57.7659 266.83 56.7859 267.37C55.8059 267.89 54.7759 268.15 53.6959 268.15ZM54.7759 265.48C55.2759 265.48 55.7559 265.4 56.2159 265.24C56.6759 265.06 57.0959 264.83 57.4759 264.55C57.8759 264.25 58.2159 263.92 58.4959 263.56C58.7759 263.18 58.9759 262.78 59.0959 262.36V258.25C58.8359 257.57 58.4659 256.98 57.9859 256.48C57.5059 255.96 56.9659 255.56 56.3659 255.28C55.7659 255 55.1559 254.86 54.5359 254.86C53.8159 254.86 53.1659 255.02 52.5859 255.34C52.0259 255.64 51.5459 256.05 51.1459 256.57C50.7459 257.07 50.4359 257.64 50.2159 258.28C49.9959 258.92 49.8859 259.58 49.8859 260.26C49.8859 260.98 50.0059 261.65 50.2459 262.27C50.5059 262.89 50.8559 263.45 51.2959 263.95C51.7359 264.43 52.2559 264.81 52.8559 265.09C53.4559 265.35 54.0959 265.48 54.7759 265.48ZM73.463 268.3C72.243 268.3 71.133 268.09 70.133 267.67C69.153 267.23 68.303 266.64 67.583 265.9C66.863 265.14 66.303 264.28 65.903 263.32C65.523 262.34 65.333 261.3 65.333 260.2C65.333 258.72 65.673 257.37 66.353 256.15C67.033 254.91 67.983 253.92 69.203 253.18C70.423 252.42 71.853 252.04 73.493 252.04C75.133 252.04 76.543 252.42 77.723 253.18C78.923 253.92 79.853 254.9 80.513 256.12C81.173 257.34 81.503 258.65 81.503 260.05C81.503 260.29 81.493 260.52 81.473 260.74C81.453 260.94 81.433 261.11 81.413 261.25H68.843C68.903 262.17 69.153 262.98 69.593 263.68C70.053 264.36 70.633 264.9 71.333 265.3C72.033 265.68 72.783 265.87 73.583 265.87C74.463 265.87 75.293 265.65 76.073 265.21C76.873 264.77 77.413 264.19 77.693 263.47L80.513 264.28C80.173 265.04 79.653 265.73 78.953 266.35C78.273 266.95 77.463 267.43 76.523 267.79C75.583 268.13 74.563 268.3 73.463 268.3ZM68.753 259.06H78.233C78.173 258.16 77.913 257.37 77.453 256.69C77.013 255.99 76.443 255.45 75.743 255.07C75.063 254.67 74.303 254.47 73.463 254.47C72.643 254.47 71.883 254.67 71.183 255.07C70.503 255.45 69.943 255.99 69.503 256.69C69.063 257.37 68.813 258.16 68.753 259.06ZM93.0148 255.16C91.7348 255.18 90.5948 255.47 89.5948 256.03C88.6148 256.59 87.9148 257.38 87.4948 258.4V268H84.1948V252.31H87.2548V255.82C87.7948 254.74 88.5048 253.88 89.3848 253.24C90.2648 252.58 91.1948 252.22 92.1748 252.16C92.3748 252.16 92.5348 252.16 92.6548 252.16C92.7948 252.16 92.9148 252.17 93.0148 252.19V255.16Z" fill="#D3D9E9"/>
<line x1="191" y1="270.5" x2="491" y2="270.5" stroke="#D3D9E9"/>
<path d="M518.646 270.354C518.842 270.549 519.158 270.549 519.354 270.354L522.536 267.172C522.731 266.976 522.731 266.66 522.536 266.464C522.34 266.269 522.024 266.269 521.828 266.464L519 269.293L516.172 266.464C515.976 266.269 515.66 266.269 515.464 266.464C515.269 266.66 515.269 266.976 515.464 267.172L518.646 270.354ZM518.5 245V270H519.5V245H518.5Z" fill="#D3D9E9"/>
<path d="M10.55 322.7H13.73L22.01 344H18.47L16.22 338.21H8L5.78 344H2.21L10.55 322.7ZM15.56 335.72L12.14 326.39L8.6 335.72H15.56ZM24.2248 322.1H27.5248V339.47C27.5248 340.27 27.6448 340.78 27.8848 341C28.1248 341.22 28.4248 341.33 28.7848 341.33C29.1848 341.33 29.5548 341.29 29.8948 341.21C30.2548 341.13 30.5648 341.03 30.8248 340.91L31.3048 343.52C30.8248 343.72 30.2548 343.89 29.5948 344.03C28.9348 344.17 28.3448 344.24 27.8248 344.24C26.7048 344.24 25.8248 343.93 25.1848 343.31C24.5448 342.67 24.2248 341.79 24.2248 340.67V322.1ZM41.6783 344.3C40.4783 344.3 39.3883 344.02 38.4083 343.46C37.4483 342.88 36.6883 342.11 36.1283 341.15V344H33.2183V322.1H36.5183V331.28C37.1383 330.28 37.9083 329.49 38.8283 328.91C39.7683 328.33 40.8683 328.04 42.1283 328.04C43.1683 328.04 44.1183 328.26 44.9783 328.7C45.8383 329.14 46.5683 329.74 47.1683 330.5C47.7883 331.26 48.2583 332.13 48.5783 333.11C48.9183 334.09 49.0883 335.13 49.0883 336.23C49.0883 337.33 48.8983 338.37 48.5183 339.35C48.1583 340.33 47.6383 341.19 46.9583 341.93C46.2783 342.67 45.4883 343.25 44.5883 343.67C43.7083 344.09 42.7383 344.3 41.6783 344.3ZM40.8083 341.48C41.5283 341.48 42.1883 341.34 42.7883 341.06C43.3883 340.76 43.9083 340.37 44.3483 339.89C44.7883 339.41 45.1183 338.85 45.3383 338.21C45.5783 337.57 45.6983 336.91 45.6983 336.23C45.6983 335.29 45.4983 334.41 45.0983 333.59C44.7183 332.77 44.1783 332.11 43.4783 331.61C42.7783 331.11 41.9683 330.86 41.0483 330.86C40.3883 330.86 39.7683 331.02 39.1883 331.34C38.6083 331.64 38.0883 332.05 37.6283 332.57C37.1883 333.07 36.8183 333.63 36.5183 334.25V338.39C36.6383 338.85 36.8483 339.27 37.1483 339.65C37.4483 340.01 37.7983 340.33 38.1983 340.61C38.5983 340.87 39.0283 341.08 39.4883 341.24C39.9483 341.4 40.3883 341.48 40.8083 341.48ZM51.9062 337.91V328.31H55.2062V337.25C55.2062 338.65 55.4562 339.71 55.9562 340.43C56.4762 341.13 57.2262 341.48 58.2062 341.48C58.8262 341.48 59.4262 341.35 60.0062 341.09C60.6062 340.83 61.1462 340.45 61.6262 339.95C62.1262 339.43 62.5262 338.81 62.8262 338.09V328.31H66.1262V340.28C66.1262 340.66 66.1962 340.93 66.3362 341.09C66.4762 341.25 66.7062 341.34 67.0262 341.36V344C66.6862 344.06 66.4062 344.1 66.1862 344.12C65.9662 344.14 65.7562 344.15 65.5562 344.15C64.9562 344.15 64.4562 343.99 64.0562 343.67C63.6562 343.33 63.4262 342.9 63.3662 342.38L63.3062 340.82C62.6062 341.96 61.6962 342.83 60.5762 343.43C59.4562 344.01 58.2262 344.3 56.8862 344.3C55.2462 344.3 54.0062 343.76 53.1662 342.68C52.3262 341.6 51.9062 340.01 51.9062 337.91ZM94.3374 344H91.0374V335.21C91.0374 333.75 90.7974 332.68 90.3174 332C89.8374 331.32 89.1374 330.98 88.2174 330.98C87.2974 330.98 86.4374 331.33 85.6374 332.03C84.8574 332.71 84.3074 333.6 83.9874 334.7V344H80.6874V335.21C80.6874 333.75 80.4474 332.68 79.9674 332C79.4874 331.32 78.7974 330.98 77.8974 330.98C76.9774 330.98 76.1174 331.32 75.3174 332C74.5374 332.68 73.9774 333.57 73.6374 334.67V344H70.3374V328.31H73.3374V331.46C73.9574 330.36 74.7674 329.52 75.7674 328.94C76.7874 328.34 77.9474 328.04 79.2474 328.04C80.5474 328.04 81.5674 328.38 82.3074 329.06C83.0674 329.74 83.5374 330.59 83.7174 331.61C84.3974 330.45 85.2274 329.57 86.2074 328.97C87.2074 328.35 88.3474 328.04 89.6274 328.04C90.5474 328.04 91.3174 328.21 91.9374 328.55C92.5574 328.89 93.0374 329.36 93.3774 329.96C93.7174 330.54 93.9574 331.22 94.0974 332C94.2574 332.76 94.3374 333.57 94.3374 334.43V344Z" fill="#D3D9E9"/>
<line x1="191" y1="346.5" x2="491" y2="346.5" stroke="#D3D9E9"/>
<path d="M518.646 346.354C518.842 346.549 519.158 346.549 519.354 346.354L522.536 343.172C522.731 342.976 522.731 342.66 522.536 342.464C522.34 342.269 522.024 342.269 521.828 342.464L519 345.293L516.172 342.464C515.976 342.269 515.66 342.269 515.464 342.464C515.269 342.66 515.269 342.976 515.464 343.172L518.646 346.354ZM518.5 321V346H519.5V321H518.5Z" fill="#D3D9E9"/>
<path d="M13.1 420.15C11.7 420.15 10.39 419.86 9.17 419.28C7.95 418.7 6.88 417.9 5.96 416.88C5.06 415.86 4.35 414.7 3.83 413.4C3.33 412.1 3.08 410.72 3.08 409.26C3.08 407.8 3.33 406.43 3.83 405.15C4.35 403.87 5.06 402.73 5.96 401.73C6.88 400.73 7.95 399.95 9.17 399.39C10.41 398.83 11.76 398.55 13.22 398.55C15.24 398.55 16.94 398.98 18.32 399.84C19.72 400.68 20.77 401.8 21.47 403.2L18.89 405.06C18.33 403.9 17.53 403.03 16.49 402.45C15.47 401.87 14.35 401.58 13.13 401.58C12.13 401.58 11.22 401.79 10.4 402.21C9.58 402.63 8.87 403.21 8.27 403.95C7.69 404.67 7.25 405.5 6.95 406.44C6.65 407.36 6.5 408.33 6.5 409.35C6.5 410.43 6.67 411.44 7.01 412.38C7.35 413.32 7.83 414.15 8.45 414.87C9.07 415.57 9.8 416.12 10.64 416.52C11.48 416.92 12.39 417.12 13.37 417.12C14.53 417.12 15.63 416.83 16.67 416.25C17.73 415.65 18.72 414.76 19.64 413.58V417C17.78 419.1 15.6 420.15 13.1 420.15ZM19.31 411.72H14.84V409.23H22.13V420H19.31V411.72ZM32.6525 420.3C31.4325 420.3 30.3225 420.09 29.3225 419.67C28.3425 419.23 27.4925 418.64 26.7725 417.9C26.0525 417.14 25.4925 416.28 25.0925 415.32C24.7125 414.34 24.5225 413.3 24.5225 412.2C24.5225 410.72 24.8625 409.37 25.5425 408.15C26.2225 406.91 27.1725 405.92 28.3925 405.18C29.6125 404.42 31.0425 404.04 32.6825 404.04C34.3225 404.04 35.7325 404.42 36.9125 405.18C38.1125 405.92 39.0425 406.9 39.7025 408.12C40.3625 409.34 40.6925 410.65 40.6925 412.05C40.6925 412.29 40.6825 412.52 40.6625 412.74C40.6425 412.94 40.6225 413.11 40.6025 413.25H28.0325C28.0925 414.17 28.3425 414.98 28.7825 415.68C29.2425 416.36 29.8225 416.9 30.5225 417.3C31.2225 417.68 31.9725 417.87 32.7725 417.87C33.6525 417.87 34.4825 417.65 35.2625 417.21C36.0625 416.77 36.6025 416.19 36.8825 415.47L39.7025 416.28C39.3625 417.04 38.8425 417.73 38.1425 418.35C37.4625 418.95 36.6525 419.43 35.7125 419.79C34.7725 420.13 33.7525 420.3 32.6525 420.3ZM27.9425 411.06H37.4225C37.3625 410.16 37.1025 409.37 36.6425 408.69C36.2025 407.99 35.6325 407.45 34.9325 407.07C34.2525 406.67 33.4925 406.47 32.6525 406.47C31.8325 406.47 31.0725 406.67 30.3725 407.07C29.6925 407.45 29.1325 407.99 28.6925 408.69C28.2525 409.37 28.0025 410.16 27.9425 411.06ZM57.4543 420H54.1543V411.21C54.1543 409.75 53.9143 408.68 53.4343 408C52.9743 407.32 52.2843 406.98 51.3643 406.98C50.7243 406.98 50.0843 407.14 49.4443 407.46C48.8243 407.78 48.2643 408.22 47.7643 408.78C47.2643 409.32 46.9043 409.95 46.6843 410.67V420H43.3843V404.31H46.3843V407.46C46.7843 406.76 47.3043 406.16 47.9443 405.66C48.6043 405.14 49.3443 404.74 50.1643 404.46C50.9843 404.18 51.8543 404.04 52.7743 404.04C53.7143 404.04 54.4843 404.21 55.0843 404.55C55.7043 404.89 56.1843 405.36 56.5243 405.96C56.8843 406.54 57.1243 407.22 57.2443 408C57.3843 408.76 57.4543 409.57 57.4543 410.43V420ZM70.1047 407.16C68.8247 407.18 67.6847 407.47 66.6847 408.03C65.7047 408.59 65.0047 409.38 64.5847 410.4V420H61.2847V404.31H64.3447V407.82C64.8847 406.74 65.5947 405.88 66.4747 405.24C67.3547 404.58 68.2847 404.22 69.2647 404.16C69.4647 404.16 69.6247 404.16 69.7447 404.16C69.8847 404.16 70.0047 404.17 70.1047 404.19V407.16ZM79.3517 420.3C78.1317 420.3 77.0217 420.09 76.0217 419.67C75.0417 419.23 74.1917 418.64 73.4717 417.9C72.7517 417.14 72.1917 416.28 71.7917 415.32C71.4117 414.34 71.2217 413.3 71.2217 412.2C71.2217 410.72 71.5617 409.37 72.2417 408.15C72.9217 406.91 73.8717 405.92 75.0917 405.18C76.3117 404.42 77.7417 404.04 79.3817 404.04C81.0217 404.04 82.4317 404.42 83.6117 405.18C84.8117 405.92 85.7417 406.9 86.4017 408.12C87.0617 409.34 87.3917 410.65 87.3917 412.05C87.3917 412.29 87.3817 412.52 87.3617 412.74C87.3417 412.94 87.3217 413.11 87.3017 413.25H74.7317C74.7917 414.17 75.0417 414.98 75.4817 415.68C75.9417 416.36 76.5217 416.9 77.2217 417.3C77.9217 417.68 78.6717 417.87 79.4717 417.87C80.3517 417.87 81.1817 417.65 81.9617 417.21C82.7617 416.77 83.3017 416.19 83.5817 415.47L86.4017 416.28C86.0617 417.04 85.5417 417.73 84.8417 418.35C84.1617 418.95 83.3517 419.43 82.4117 419.79C81.4717 420.13 80.4517 420.3 79.3517 420.3ZM74.6417 411.06H84.1217C84.0617 410.16 83.8017 409.37 83.3417 408.69C82.9017 407.99 82.3317 407.45 81.6317 407.07C80.9517 406.67 80.1917 406.47 79.3517 406.47C78.5317 406.47 77.7717 406.67 77.0717 407.07C76.3917 407.45 75.8317 407.99 75.3917 408.69C74.9517 409.37 74.7017 410.16 74.6417 411.06Z" fill="#D3D9E9"/>
<line x1="191" y1="422.5" x2="491" y2="422.5" stroke="#D3D9E9"/>
<path d="M518.646 422.354C518.842 422.549 519.158 422.549 519.354 422.354L522.536 419.172C522.731 418.976 522.731 418.66 522.536 418.464C522.34 418.269 522.024 418.269 521.828 418.464L519 421.293L516.172 418.464C515.976 418.269 515.66 418.269 515.464 418.464C515.269 418.66 515.269 418.976 515.464 419.172L518.646 422.354ZM518.5 397V422H519.5V397H518.5Z" fill="#D3D9E9"/>
<path d="M18.84 28V15.31L14.25 24.55H11.55L6.96 15.31V28H2.04V6.7H7.38L12.9 17.83L18.45 6.7H23.76V28H18.84ZM27.3105 22.33V12.25H32.1105V21.28C32.1105 22.24 32.3005 22.98 32.6805 23.5C33.0605 24 33.6005 24.25 34.3005 24.25C34.7405 24.25 35.1605 24.18 35.5605 24.04C35.9605 23.88 36.3505 23.63 36.7305 23.29C37.1105 22.95 37.4505 22.51 37.7505 21.97V12.25H42.5505V22.66C42.5505 23.14 42.6205 23.48 42.7605 23.68C42.9205 23.86 43.1905 23.97 43.5705 24.01V28C43.1305 28.08 42.7405 28.14 42.4005 28.18C42.0805 28.22 41.7905 28.24 41.5305 28.24C40.6905 28.24 40.0205 28.07 39.5205 27.73C39.0205 27.37 38.7105 26.87 38.5905 26.23L38.5005 25.27C37.7805 26.31 36.8805 27.08 35.8005 27.58C34.7405 28.06 33.5505 28.3 32.2305 28.3C30.6305 28.3 29.4105 27.79 28.5705 26.77C27.7305 25.75 27.3105 24.27 27.3105 22.33ZM52.2991 28.3C50.9591 28.3 49.6491 28.08 48.3691 27.64C47.0891 27.2 46.0091 26.55 45.1291 25.69L46.7791 22.66C47.7391 23.36 48.6691 23.89 49.5691 24.25C50.4891 24.61 51.3491 24.79 52.1491 24.79C52.7691 24.79 53.2491 24.69 53.5891 24.49C53.9291 24.29 54.0991 23.98 54.0991 23.56C54.0991 23.26 53.9991 23.03 53.7991 22.87C53.5991 22.69 53.2891 22.53 52.8691 22.39C52.4691 22.25 51.9691 22.1 51.3691 21.94C50.1691 21.54 49.1691 21.15 48.3691 20.77C47.5691 20.39 46.9691 19.93 46.5691 19.39C46.1691 18.83 45.9691 18.11 45.9691 17.23C45.9691 16.17 46.2291 15.25 46.7491 14.47C47.2891 13.67 48.0491 13.05 49.0291 12.61C50.0091 12.17 51.1791 11.95 52.5391 11.95C53.6191 11.95 54.6691 12.12 55.6891 12.46C56.7291 12.8 57.6991 13.37 58.5991 14.17L56.7391 17.17C55.8391 16.55 55.0391 16.1 54.3391 15.82C53.6391 15.54 52.9591 15.4 52.2991 15.4C51.9591 15.4 51.6491 15.44 51.3691 15.52C51.0891 15.6 50.8591 15.74 50.6791 15.94C50.5191 16.12 50.4391 16.36 50.4391 16.66C50.4391 16.96 50.5191 17.2 50.6791 17.38C50.8591 17.56 51.1291 17.72 51.4891 17.86C51.8691 17.98 52.3391 18.13 52.8991 18.31C54.1991 18.69 55.2791 19.08 56.1391 19.48C56.9991 19.86 57.6391 20.34 58.0591 20.92C58.4991 21.48 58.7191 22.23 58.7191 23.17C58.7191 24.77 58.1391 26.03 56.9791 26.95C55.8391 27.85 54.2791 28.3 52.2991 28.3ZM61.1813 28V12.25H65.9813V28H61.1813ZM61.1813 10.45V6.1H65.9813V10.45H61.1813ZM76.7972 28.3C75.4572 28.3 74.2672 28.08 73.2272 27.64C72.1872 27.2 71.2972 26.6 70.5572 25.84C69.8372 25.08 69.2872 24.21 68.9072 23.23C68.5272 22.25 68.3372 21.21 68.3372 20.11C68.3372 18.67 68.6672 17.33 69.3272 16.09C70.0072 14.85 70.9772 13.85 72.2372 13.09C73.4972 12.33 75.0172 11.95 76.7972 11.95C78.5972 11.95 80.1172 12.34 81.3572 13.12C82.6172 13.88 83.5572 14.88 84.1772 16.12L79.4972 17.53C79.1972 17.05 78.8072 16.68 78.3272 16.42C77.8672 16.16 77.3472 16.03 76.7672 16.03C76.1072 16.03 75.5072 16.2 74.9672 16.54C74.4472 16.88 74.0272 17.35 73.7072 17.95C73.4072 18.55 73.2572 19.27 73.2572 20.11C73.2572 20.93 73.4172 21.65 73.7372 22.27C74.0572 22.89 74.4772 23.38 74.9972 23.74C75.5172 24.08 76.1072 24.25 76.7672 24.25C77.1672 24.25 77.5372 24.19 77.8772 24.07C78.2372 23.93 78.5572 23.74 78.8372 23.5C79.1372 23.26 79.3672 22.99 79.5272 22.69L84.2072 24.13C83.8272 24.93 83.2772 25.65 82.5572 26.29C81.8572 26.91 81.0272 27.4 80.0672 27.76C79.1072 28.12 78.0172 28.3 76.7972 28.3ZM93.7685 28V6.7H98.6885V23.68H109.009V28H93.7685ZM110.927 28V12.25H115.727V28H110.927ZM110.927 10.45V6.1H115.727V10.45H110.927ZM128.463 28.3C127.263 28.3 126.213 28.05 125.313 27.55C124.413 27.03 123.703 26.31 123.183 25.39V28H119.013V6.1H123.813V14.83C124.333 13.91 125.023 13.2 125.883 12.7C126.763 12.2 127.793 11.95 128.973 11.95C129.973 11.95 130.883 12.17 131.703 12.61C132.543 13.03 133.263 13.62 133.863 14.38C134.483 15.12 134.963 15.99 135.303 16.99C135.643 17.97 135.813 19.04 135.813 20.2C135.813 21.34 135.623 22.4 135.243 23.38C134.883 24.36 134.373 25.22 133.713 25.96C133.053 26.7 132.273 27.28 131.373 27.7C130.493 28.1 129.523 28.3 128.463 28.3ZM127.113 24.25C127.653 24.25 128.153 24.15 128.613 23.95C129.093 23.73 129.503 23.44 129.843 23.08C130.183 22.72 130.443 22.3 130.623 21.82C130.803 21.32 130.893 20.78 130.893 20.2C130.893 19.46 130.743 18.77 130.443 18.13C130.143 17.49 129.723 16.98 129.183 16.6C128.663 16.22 128.053 16.03 127.353 16.03C126.853 16.03 126.373 16.15 125.913 16.39C125.453 16.63 125.043 16.96 124.683 17.38C124.323 17.78 124.033 18.24 123.813 18.76V22.06C123.973 22.4 124.173 22.71 124.413 22.99C124.653 23.25 124.913 23.47 125.193 23.65C125.493 23.83 125.803 23.98 126.123 24.1C126.463 24.2 126.793 24.25 127.113 24.25ZM148.193 16.36C147.033 16.36 145.983 16.55 145.043 16.93C144.103 17.29 143.423 17.83 143.003 18.55V28H138.203V12.25H142.613V15.43C143.153 14.37 143.853 13.54 144.713 12.94C145.573 12.34 146.473 12.03 147.413 12.01C147.633 12.01 147.793 12.01 147.893 12.01C148.013 12.01 148.113 12.02 148.193 12.04V16.36ZM149.107 23.29C149.107 22.25 149.397 21.34 149.977 20.56C150.557 19.78 151.357 19.17 152.377 18.73C153.397 18.27 154.567 18.04 155.887 18.04C156.527 18.04 157.157 18.1 157.777 18.22C158.397 18.32 158.937 18.47 159.397 18.67V17.98C159.397 17.12 159.137 16.46 158.617 16C158.097 15.54 157.307 15.31 156.247 15.31C155.367 15.31 154.537 15.46 153.757 15.76C152.997 16.06 152.187 16.49 151.327 17.05L149.887 13.99C150.927 13.31 152.007 12.8 153.127 12.46C154.267 12.12 155.467 11.95 156.727 11.95C159.087 11.95 160.917 12.52 162.217 13.66C163.537 14.78 164.197 16.41 164.197 18.55V22.66C164.197 23.14 164.267 23.48 164.407 23.68C164.567 23.86 164.837 23.97 165.217 24.01V28C164.817 28.08 164.437 28.14 164.077 28.18C163.737 28.22 163.437 28.24 163.177 28.24C162.277 28.24 161.587 28.06 161.107 27.7C160.647 27.34 160.357 26.85 160.237 26.23L160.147 25.54C159.447 26.44 158.607 27.13 157.627 27.61C156.667 28.07 155.657 28.3 154.597 28.3C153.557 28.3 152.617 28.08 151.777 27.64C150.957 27.2 150.307 26.6 149.827 25.84C149.347 25.08 149.107 24.23 149.107 23.29ZM158.647 23.89C158.867 23.71 159.047 23.51 159.187 23.29C159.327 23.07 159.397 22.86 159.397 22.66V21.25C158.997 21.09 158.547 20.97 158.047 20.89C157.567 20.79 157.117 20.74 156.697 20.74C155.817 20.74 155.087 20.94 154.507 21.34C153.927 21.72 153.637 22.23 153.637 22.87C153.637 23.23 153.737 23.56 153.937 23.86C154.137 24.16 154.407 24.4 154.747 24.58C155.107 24.76 155.527 24.85 156.007 24.85C156.487 24.85 156.967 24.76 157.447 24.58C157.927 24.4 158.327 24.17 158.647 23.89ZM177.665 16.36C176.505 16.36 175.455 16.55 174.515 16.93C173.575 17.29 172.895 17.83 172.475 18.55V28H167.675V12.25H172.085V15.43C172.625 14.37 173.325 13.54 174.185 12.94C175.045 12.34 175.945 12.03 176.885 12.01C177.105 12.01 177.265 12.01 177.365 12.01C177.485 12.01 177.585 12.02 177.665 12.04V16.36ZM179.807 30.37C180.207 30.49 180.577 30.58 180.917 30.64C181.277 30.72 181.597 30.76 181.877 30.76C182.257 30.76 182.577 30.67 182.837 30.49C183.117 30.33 183.357 30.04 183.557 29.62C183.757 29.22 183.937 28.68 184.097 28L178.097 12.25H183.047L186.707 23.08L189.827 12.25H194.357L188.357 30.55C188.077 31.41 187.647 32.17 187.067 32.83C186.487 33.49 185.787 34 184.967 34.36C184.147 34.74 183.247 34.93 182.267 34.93C181.847 34.93 181.437 34.89 181.037 34.81C180.637 34.75 180.227 34.64 179.807 34.48V30.37Z" fill="#D3D9E9"/>
<path d="M6.275 53.35H7.865L12.005 64H10.235L9.11 61.105H5L3.89 64H2.105L6.275 53.35ZM8.78 59.86L7.07 55.195L5.3 59.86H8.78ZM13.3221 64V53.35H17.1021C18.2521 53.35 19.2121 53.59 19.9821 54.07C20.7521 54.54 21.3271 55.18 21.7071 55.99C22.0971 56.79 22.2921 57.68 22.2921 58.66C22.2921 59.74 22.0771 60.68 21.6471 61.48C21.2271 62.28 20.6271 62.9 19.8471 63.34C19.0671 63.78 18.1521 64 17.1021 64H13.3221ZM20.5821 58.66C20.5821 57.91 20.4421 57.25 20.1621 56.68C19.8921 56.1 19.4971 55.65 18.9771 55.33C18.4671 55 17.8421 54.835 17.1021 54.835H15.0021V62.515H17.1021C17.8521 62.515 18.4821 62.345 18.9921 62.005C19.5121 61.665 19.9071 61.205 20.1771 60.625C20.4471 60.045 20.5821 59.39 20.5821 58.66ZM24.0594 64V53.35H27.8394C28.9894 53.35 29.9494 53.59 30.7194 54.07C31.4894 54.54 32.0644 55.18 32.4444 55.99C32.8344 56.79 33.0294 57.68 33.0294 58.66C33.0294 59.74 32.8144 60.68 32.3844 61.48C31.9644 62.28 31.3644 62.9 30.5844 63.34C29.8044 63.78 28.8894 64 27.8394 64H24.0594ZM31.3194 58.66C31.3194 57.91 31.1794 57.25 30.8994 56.68C30.6294 56.1 30.2344 55.65 29.7144 55.33C29.2044 55 28.5794 54.835 27.8394 54.835H25.7394V62.515H27.8394C28.5894 62.515 29.2194 62.345 29.7294 62.005C30.2494 61.665 30.6444 61.205 30.9144 60.625C31.1844 60.045 31.3194 59.39 31.3194 58.66ZM40.1827 56.47V64H38.5027V53.35H39.8827L45.9127 61.045V53.365H47.6077V64H46.1377L40.1827 56.47ZM57.3068 62.515V64H50.0018V53.35H57.1718V54.835H51.6818V57.865H56.4368V59.26H51.6818V62.515H57.3068ZM62.8198 53.395H64.3948L65.7148 57.01L67.0498 53.395H68.6248L66.7948 58.135L68.3848 62.05L71.6998 53.35H73.5448L69.1798 64H67.7248L65.7298 59.23L63.7198 64H62.2498L57.8998 53.35H59.7298L63.0598 62.05L64.6498 58.135L62.8198 53.395Z" fill="#D3D9E9"/>
<path d="M467.5 525.855C467.4 525.745 467.255 525.63 467.065 525.51C466.875 525.38 466.65 525.26 466.39 525.15C466.13 525.04 465.85 524.95 465.55 524.88C465.25 524.81 464.94 524.775 464.62 524.775C463.92 524.775 463.4 524.905 463.06 525.165C462.72 525.425 462.55 525.785 462.55 526.245C462.55 526.585 462.645 526.855 462.835 527.055C463.025 527.245 463.315 527.405 463.705 527.535C464.095 527.665 464.585 527.805 465.175 527.955C465.895 528.125 466.52 528.33 467.05 528.57C467.58 528.8 467.985 529.11 468.265 529.5C468.545 529.89 468.685 530.405 468.685 531.045C468.685 531.585 468.585 532.05 468.385 532.44C468.185 532.83 467.905 533.15 467.545 533.4C467.185 533.64 466.77 533.82 466.3 533.94C465.83 534.05 465.325 534.105 464.785 534.105C464.255 534.105 463.725 534.05 463.195 533.94C462.675 533.83 462.175 533.67 461.695 533.46C461.225 533.24 460.79 532.975 460.39 532.665L461.155 531.225C461.285 531.355 461.47 531.5 461.71 531.66C461.96 531.81 462.245 531.955 462.565 532.095C462.895 532.235 463.25 532.355 463.63 532.455C464.02 532.545 464.415 532.59 464.815 532.59C465.485 532.59 465.995 532.475 466.345 532.245C466.705 532.005 466.885 531.665 466.885 531.225C466.885 530.865 466.77 530.58 466.54 530.37C466.31 530.15 465.975 529.965 465.535 529.815C465.095 529.665 464.57 529.515 463.96 529.365C463.26 529.175 462.675 528.97 462.205 528.75C461.735 528.52 461.38 528.23 461.14 527.88C460.91 527.52 460.795 527.065 460.795 526.515C460.795 525.815 460.965 525.225 461.305 524.745C461.645 524.255 462.105 523.89 462.685 523.65C463.275 523.4 463.935 523.275 464.665 523.275C465.145 523.275 465.6 523.33 466.03 523.44C466.46 523.54 466.86 523.68 467.23 523.86C467.61 524.04 467.955 524.245 468.265 524.475L467.5 525.855ZM473.225 523.35H474.815L478.955 534H477.185L476.06 531.105H471.95L470.84 534H469.055L473.225 523.35ZM475.73 529.86L474.02 525.195L472.25 529.86H475.73ZM480.083 523.35L483.293 531.945L486.488 523.35H488.273L484.088 534H482.498L478.298 523.35H480.083ZM496.879 532.515V534H489.574V523.35H496.744V524.835H491.254V527.865H496.009V529.26H491.254V532.515H496.879Z" fill="#D3D9E9"/>
<path d="M522.707 542.707C523.098 542.317 523.098 541.683 522.707 541.293L516.343 534.929C515.953 534.538 515.319 534.538 514.929 534.929C514.538 535.319 514.538 535.953 514.929 536.343L520.586 542L514.929 547.657C514.538 548.047 514.538 548.681 514.929 549.071C515.319 549.462 515.953 549.462 516.343 549.071L522.707 542.707ZM322 543H522V541H322V543Z" fill="#D3D9E9"/>
<path d="M27.525 528.6C27.525 527.95 27.64 527.315 27.87 526.695C28.1 526.065 28.435 525.495 28.875 524.985C29.325 524.465 29.87 524.055 30.51 523.755C31.15 523.445 31.875 523.29 32.685 523.29C33.645 523.29 34.475 523.51 35.175 523.95C35.875 524.38 36.395 524.935 36.735 525.615L35.415 526.5C35.215 526.07 34.96 525.73 34.65 525.48C34.35 525.23 34.02 525.055 33.66 524.955C33.31 524.855 32.965 524.805 32.625 524.805C32.065 524.805 31.575 524.92 31.155 525.15C30.735 525.37 30.38 525.665 30.09 526.035C29.81 526.405 29.595 526.82 29.445 527.28C29.305 527.74 29.235 528.2 29.235 528.66C29.235 529.17 29.32 529.665 29.49 530.145C29.66 530.615 29.895 531.035 30.195 531.405C30.505 531.765 30.87 532.05 31.29 532.26C31.71 532.47 32.17 532.575 32.67 532.575C33.01 532.575 33.365 532.515 33.735 532.395C34.105 532.275 34.445 532.09 34.755 531.84C35.075 531.58 35.325 531.24 35.505 530.82L36.9 531.615C36.68 532.145 36.335 532.595 35.865 532.965C35.405 533.335 34.885 533.615 34.305 533.805C33.735 533.995 33.17 534.09 32.61 534.09C31.86 534.09 31.175 533.935 30.555 533.625C29.935 533.305 29.4 532.885 28.95 532.365C28.5 531.835 28.15 531.245 27.9 530.595C27.65 529.935 27.525 529.27 27.525 528.6ZM41.3824 523.35H42.9724L47.1124 534H45.3424L44.2174 531.105H40.1074L38.9974 534H37.2124L41.3824 523.35ZM43.8874 529.86L42.1774 525.195L40.4074 529.86H43.8874ZM50.1095 526.47V534H48.4295V523.35H49.8095L55.8395 531.045V523.365H57.5345V534H56.0645L50.1095 526.47ZM66.2285 525.855C66.1285 525.745 65.9835 525.63 65.7935 525.51C65.6035 525.38 65.3785 525.26 65.1185 525.15C64.8585 525.04 64.5785 524.95 64.2785 524.88C63.9785 524.81 63.6685 524.775 63.3485 524.775C62.6485 524.775 62.1285 524.905 61.7885 525.165C61.4485 525.425 61.2785 525.785 61.2785 526.245C61.2785 526.585 61.3735 526.855 61.5635 527.055C61.7535 527.245 62.0435 527.405 62.4335 527.535C62.8235 527.665 63.3135 527.805 63.9035 527.955C64.6235 528.125 65.2485 528.33 65.7785 528.57C66.3085 528.8 66.7135 529.11 66.9935 529.5C67.2735 529.89 67.4135 530.405 67.4135 531.045C67.4135 531.585 67.3135 532.05 67.1135 532.44C66.9135 532.83 66.6335 533.15 66.2735 533.4C65.9135 533.64 65.4985 533.82 65.0285 533.94C64.5585 534.05 64.0535 534.105 63.5135 534.105C62.9835 534.105 62.4535 534.05 61.9235 533.94C61.4035 533.83 60.9035 533.67 60.4235 533.46C59.9535 533.24 59.5185 532.975 59.1185 532.665L59.8835 531.225C60.0135 531.355 60.1985 531.5 60.4385 531.66C60.6885 531.81 60.9735 531.955 61.2935 532.095C61.6235 532.235 61.9785 532.355 62.3585 532.455C62.7485 532.545 63.1435 532.59 63.5435 532.59C64.2135 532.59 64.7235 532.475 65.0735 532.245C65.4335 532.005 65.6135 531.665 65.6135 531.225C65.6135 530.865 65.4985 530.58 65.2685 530.37C65.0385 530.15 64.7035 529.965 64.2635 529.815C63.8235 529.665 63.2985 529.515 62.6885 529.365C61.9885 529.175 61.4035 528.97 60.9335 528.75C60.4635 528.52 60.1085 528.23 59.8685 527.88C59.6385 527.52 59.5235 527.065 59.5235 526.515C59.5235 525.815 59.6935 525.225 60.0335 524.745C60.3735 524.255 60.8335 523.89 61.4135 523.65C62.0035 523.4 62.6635 523.275 63.3935 523.275C63.8735 523.275 64.3285 523.33 64.7585 523.44C65.1885 523.54 65.5885 523.68 65.9585 523.86C66.3385 524.04 66.6835 524.245 66.9935 524.475L66.2285 525.855ZM76.4034 532.515V534H69.0984V523.35H76.2684V524.835H70.7784V527.865H75.5334V529.26H70.7784V532.515H76.4034ZM78.1365 534V523.35H79.8165V532.515H85.5315V534H78.1365Z" fill="#D3D9E9"/>
<path d="M1.29289 541.293C0.902374 541.683 0.902374 542.317 1.29289 542.707L7.65686 549.071C8.04738 549.462 8.68054 549.462 9.07108 549.071C9.46159 548.681 9.46159 548.047 9.07108 547.657L3.41422 542L9.07108 536.343C9.46159 535.953 9.46159 535.319 9.07108 534.929C8.68054 534.538 8.04738 534.538 7.65686 534.929L1.29289 541.293ZM202 541H2V543H202V541Z" fill="#D3D9E9"/>
<path d="M348.41 56.47C348.38 56.42 348.275 56.345 348.095 56.245C347.915 56.135 347.69 56.02 347.42 55.9C347.15 55.78 346.855 55.675 346.535 55.585C346.215 55.495 345.895 55.45 345.575 55.45C345.155 55.45 344.83 55.525 344.6 55.675C344.37 55.815 344.255 56.035 344.255 56.335C344.255 56.575 344.34 56.765 344.51 56.905C344.69 57.045 344.945 57.17 345.275 57.28C345.605 57.38 346.01 57.5 346.49 57.64C347.17 57.82 347.76 58.04 348.26 58.3C348.76 58.55 349.14 58.875 349.4 59.275C349.67 59.675 349.805 60.205 349.805 60.865C349.805 61.465 349.695 61.975 349.475 62.395C349.255 62.805 348.955 63.14 348.575 63.4C348.205 63.65 347.78 63.835 347.3 63.955C346.82 64.065 346.325 64.12 345.815 64.12C345.295 64.12 344.76 64.07 344.21 63.97C343.67 63.86 343.15 63.71 342.65 63.52C342.15 63.32 341.69 63.08 341.27 62.8L342.35 60.655C342.39 60.705 342.52 60.8 342.74 60.94C342.96 61.07 343.23 61.21 343.55 61.36C343.88 61.5 344.245 61.625 344.645 61.735C345.045 61.845 345.45 61.9 345.86 61.9C346.3 61.9 346.625 61.83 346.835 61.69C347.055 61.55 347.165 61.355 347.165 61.105C347.165 60.835 347.05 60.625 346.82 60.475C346.6 60.325 346.295 60.19 345.905 60.07C345.525 59.95 345.085 59.815 344.585 59.665C343.935 59.465 343.395 59.24 342.965 58.99C342.545 58.74 342.23 58.435 342.02 58.075C341.82 57.715 341.72 57.265 341.72 56.725C341.72 55.975 341.895 55.345 342.245 54.835C342.605 54.315 343.085 53.925 343.685 53.665C344.285 53.395 344.94 53.26 345.65 53.26C346.15 53.26 346.63 53.32 347.09 53.44C347.56 53.56 347.995 53.71 348.395 53.89C348.805 54.07 349.17 54.25 349.49 54.43L348.41 56.47ZM355.914 64.09C355.114 64.09 354.389 63.94 353.739 63.64C353.099 63.33 352.544 62.92 352.074 62.41C351.614 61.89 351.259 61.31 351.009 60.67C350.759 60.02 350.634 59.35 350.634 58.66C350.634 57.95 350.764 57.275 351.024 56.635C351.294 55.995 351.664 55.425 352.134 54.925C352.614 54.415 353.179 54.015 353.829 53.725C354.479 53.435 355.189 53.29 355.959 53.29C356.749 53.29 357.464 53.445 358.104 53.755C358.754 54.055 359.309 54.465 359.769 54.985C360.239 55.505 360.599 56.09 360.849 56.74C361.099 57.38 361.224 58.035 361.224 58.705C361.224 59.415 361.094 60.09 360.834 60.73C360.574 61.37 360.204 61.945 359.724 62.455C359.244 62.955 358.679 63.355 358.029 63.655C357.389 63.945 356.684 64.09 355.914 64.09ZM353.139 58.69C353.139 59.1 353.199 59.5 353.319 59.89C353.439 60.27 353.614 60.61 353.844 60.91C354.084 61.21 354.379 61.45 354.729 61.63C355.079 61.81 355.479 61.9 355.929 61.9C356.399 61.9 356.809 61.81 357.159 61.63C357.509 61.44 357.799 61.19 358.029 60.88C358.259 60.57 358.429 60.225 358.539 59.845C358.659 59.455 358.719 59.06 358.719 58.66C358.719 58.25 358.659 57.855 358.539 57.475C358.419 57.095 358.239 56.755 357.999 56.455C357.759 56.145 357.464 55.905 357.114 55.735C356.764 55.565 356.369 55.48 355.929 55.48C355.459 55.48 355.049 55.57 354.699 55.75C354.359 55.93 354.069 56.175 353.829 56.485C353.599 56.785 353.424 57.13 353.304 57.52C353.194 57.9 353.139 58.29 353.139 58.69ZM365.105 57.91V64H362.645V53.35H364.595L369.53 59.62V53.35H371.99V64H369.98L365.105 57.91ZM378.542 64.075C377.842 64.075 377.182 63.945 376.562 63.685C375.942 63.415 375.397 63.04 374.927 62.56C374.457 62.07 374.087 61.495 373.817 60.835C373.557 60.165 373.427 59.42 373.427 58.6C373.427 57.86 373.562 57.17 373.832 56.53C374.102 55.89 374.477 55.325 374.957 54.835C375.437 54.345 375.997 53.965 376.637 53.695C377.287 53.415 377.987 53.275 378.737 53.275C379.717 53.275 380.582 53.485 381.332 53.905C382.082 54.325 382.637 54.89 382.997 55.6L381.167 56.98C380.927 56.51 380.577 56.14 380.117 55.87C379.667 55.6 379.177 55.465 378.647 55.465C378.247 55.465 377.877 55.55 377.537 55.72C377.207 55.88 376.917 56.11 376.667 56.41C376.427 56.7 376.242 57.04 376.112 57.43C375.982 57.82 375.917 58.24 375.917 58.69C375.917 59.15 375.987 59.575 376.127 59.965C376.267 60.355 376.462 60.695 376.712 60.985C376.962 61.265 377.257 61.485 377.597 61.645C377.947 61.805 378.332 61.885 378.752 61.885C379.262 61.885 379.747 61.76 380.207 61.51C380.677 61.25 381.107 60.87 381.497 60.37V62.8C380.647 63.65 379.662 64.075 378.542 64.075ZM381.347 60.22H379.277V58.435H383.387V64H381.347V60.22Z" fill="#A6A9C8"/>
<path d="M406.227 56.47C406.197 56.42 406.092 56.345 405.912 56.245C405.732 56.135 405.507 56.02 405.237 55.9C404.967 55.78 404.672 55.675 404.352 55.585C404.032 55.495 403.712 55.45 403.392 55.45C402.972 55.45 402.647 55.525 402.417 55.675C402.187 55.815 402.072 56.035 402.072 56.335C402.072 56.575 402.157 56.765 402.327 56.905C402.507 57.045 402.762 57.17 403.092 57.28C403.422 57.38 403.827 57.5 404.307 57.64C404.987 57.82 405.577 58.04 406.077 58.3C406.577 58.55 406.957 58.875 407.217 59.275C407.487 59.675 407.622 60.205 407.622 60.865C407.622 61.465 407.512 61.975 407.292 62.395C407.072 62.805 406.772 63.14 406.392 63.4C406.022 63.65 405.597 63.835 405.117 63.955C404.637 64.065 404.142 64.12 403.632 64.12C403.112 64.12 402.577 64.07 402.027 63.97C401.487 63.86 400.967 63.71 400.467 63.52C399.967 63.32 399.507 63.08 399.087 62.8L400.167 60.655C400.207 60.705 400.337 60.8 400.557 60.94C400.777 61.07 401.047 61.21 401.367 61.36C401.697 61.5 402.062 61.625 402.462 61.735C402.862 61.845 403.267 61.9 403.677 61.9C404.117 61.9 404.442 61.83 404.652 61.69C404.872 61.55 404.982 61.355 404.982 61.105C404.982 60.835 404.867 60.625 404.637 60.475C404.417 60.325 404.112 60.19 403.722 60.07C403.342 59.95 402.902 59.815 402.402 59.665C401.752 59.465 401.212 59.24 400.782 58.99C400.362 58.74 400.047 58.435 399.837 58.075C399.637 57.715 399.537 57.265 399.537 56.725C399.537 55.975 399.712 55.345 400.062 54.835C400.422 54.315 400.902 53.925 401.502 53.665C402.102 53.395 402.757 53.26 403.467 53.26C403.967 53.26 404.447 53.32 404.907 53.44C405.377 53.56 405.812 53.71 406.212 53.89C406.622 54.07 406.987 54.25 407.307 54.43L406.227 56.47ZM409.066 64V53.35H411.526V64H409.066ZM416.023 57.91V64H413.563V53.35H415.513L420.448 59.62V53.35H422.908V64H420.898L416.023 57.91ZM429.46 64.075C428.76 64.075 428.1 63.945 427.48 63.685C426.86 63.415 426.315 63.04 425.845 62.56C425.375 62.07 425.005 61.495 424.735 60.835C424.475 60.165 424.345 59.42 424.345 58.6C424.345 57.86 424.48 57.17 424.75 56.53C425.02 55.89 425.395 55.325 425.875 54.835C426.355 54.345 426.915 53.965 427.555 53.695C428.205 53.415 428.905 53.275 429.655 53.275C430.635 53.275 431.5 53.485 432.25 53.905C433 54.325 433.555 54.89 433.915 55.6L432.085 56.98C431.845 56.51 431.495 56.14 431.035 55.87C430.585 55.6 430.095 55.465 429.565 55.465C429.165 55.465 428.795 55.55 428.455 55.72C428.125 55.88 427.835 56.11 427.585 56.41C427.345 56.7 427.16 57.04 427.03 57.43C426.9 57.82 426.835 58.24 426.835 58.69C426.835 59.15 426.905 59.575 427.045 59.965C427.185 60.355 427.38 60.695 427.63 60.985C427.88 61.265 428.175 61.485 428.515 61.645C428.865 61.805 429.25 61.885 429.67 61.885C430.18 61.885 430.665 61.76 431.125 61.51C431.595 61.25 432.025 60.87 432.415 60.37V62.8C431.565 63.65 430.58 64.075 429.46 64.075ZM432.265 60.22H430.195V58.435H434.305V64H432.265V60.22ZM443.416 61.84V64H435.931V53.35H443.281V55.51H438.391V57.58H442.591V59.575H438.391V61.84H443.416ZM444.911 64V53.35H449.711C450.211 53.35 450.671 53.455 451.091 53.665C451.521 53.865 451.891 54.14 452.201 54.49C452.511 54.83 452.751 55.215 452.921 55.645C453.101 56.075 453.191 56.51 453.191 56.95C453.191 57.39 453.121 57.81 452.981 58.21C452.841 58.6 452.641 58.955 452.381 59.275C452.121 59.585 451.811 59.84 451.451 60.04L453.791 64H451.076L449.036 60.565H447.371V64H444.911ZM447.371 58.42H449.621C449.821 58.42 449.996 58.36 450.146 58.24C450.306 58.11 450.436 57.935 450.536 57.715C450.636 57.495 450.686 57.24 450.686 56.95C450.686 56.66 450.626 56.41 450.506 56.2C450.396 55.98 450.256 55.81 450.086 55.69C449.916 55.57 449.736 55.51 449.546 55.51H447.371V58.42ZM472.469 53.35H475.124L478.784 64H476.264L475.439 61.615H472.124L471.314 64H468.794L472.469 53.35ZM475.034 59.92L473.789 55.825L472.514 59.92H475.034ZM479.833 64V53.35H482.293V61.84H487.453V64H479.833ZM497.412 61.27C497.412 61.88 497.247 62.39 496.917 62.8C496.597 63.2 496.162 63.5 495.612 63.7C495.062 63.9 494.457 64 493.797 64H488.607V53.35H494.532C495.032 53.35 495.462 53.485 495.822 53.755C496.192 54.015 496.472 54.355 496.662 54.775C496.862 55.195 496.962 55.63 496.962 56.08C496.962 56.58 496.832 57.06 496.572 57.52C496.312 57.97 495.932 58.31 495.432 58.54C496.042 58.72 496.522 59.04 496.872 59.5C497.232 59.96 497.412 60.55 497.412 61.27ZM494.907 60.775C494.907 60.545 494.862 60.345 494.772 60.175C494.682 59.995 494.562 59.855 494.412 59.755C494.272 59.645 494.102 59.59 493.902 59.59H491.067V61.915H493.797C494.007 61.915 494.192 61.865 494.352 61.765C494.522 61.665 494.657 61.53 494.757 61.36C494.857 61.19 494.907 60.995 494.907 60.775ZM491.067 55.45V57.655H493.482C493.662 57.655 493.827 57.615 493.977 57.535C494.137 57.455 494.267 57.335 494.367 57.175C494.467 57.005 494.517 56.795 494.517 56.545C494.517 56.305 494.472 56.105 494.382 55.945C494.302 55.785 494.192 55.665 494.052 55.585C493.912 55.495 493.752 55.45 493.572 55.45H491.067ZM503.436 64.09C502.586 64.09 501.861 63.95 501.261 63.67C500.661 63.38 500.171 62.99 499.791 62.5C499.421 62 499.146 61.435 498.966 60.805C498.796 60.165 498.711 59.495 498.711 58.795V53.35H501.171V58.795C501.171 59.195 501.211 59.585 501.291 59.965C501.371 60.335 501.501 60.665 501.681 60.955C501.861 61.245 502.091 61.475 502.371 61.645C502.661 61.815 503.016 61.9 503.436 61.9C503.866 61.9 504.226 61.815 504.516 61.645C504.806 61.465 505.036 61.23 505.206 60.94C505.376 60.64 505.501 60.305 505.581 59.935C505.661 59.565 505.701 59.185 505.701 58.795V53.35H508.161V58.795C508.161 59.535 508.066 60.225 507.876 60.865C507.696 61.505 507.416 62.07 507.036 62.56C506.656 63.04 506.166 63.415 505.566 63.685C504.976 63.955 504.266 64.09 503.436 64.09ZM518.467 64V57.655L516.172 62.275H514.822L512.527 57.655V64H510.067V53.35H512.737L515.497 58.915L518.272 53.35H520.927V64H518.467Z" fill="#D3D9E9"/>
<path d="M342 69.5H383" stroke="#A6A9C8"/>
</svg>
