<svg width="528" height="50" viewBox="0 0 528 50" fill="none" xmlns="http://www.w3.org/2000/svg">
<path d="M503.5 25L499.677 27.3408C486.968 35.1215 470.988 35.193 458.211 27.5265L449.58 22.3479C436.913 14.7475 421.087 14.7475 408.42 22.3479L399.58 27.6521C386.913 35.2525 371.087 35.2525 358.42 27.6521L349.58 22.3479C336.913 14.7475 321.087 14.7475 308.42 22.3479L299.58 27.6521C286.913 35.2525 271.087 35.2525 258.42 27.6521L254 25L249.58 22.3479C236.913 14.7475 221.087 14.7475 208.42 22.3479L199.58 27.6521C186.913 35.2525 171.087 35.2525 158.42 27.6521L149.58 22.3479C136.913 14.7475 121.087 14.7475 108.42 22.3479L99.5798 27.6521C86.9125 35.2525 71.0875 35.2525 58.4202 27.6521L50.7059 23.0236C37.4509 15.0705 20.7998 15.4668 7.93809 24.0413L6.5 25" stroke="#9194DC" stroke-width="12" stroke-linecap="round"/>
<circle cx="503" cy="25" r="25" fill="#9194DC"/>
</svg>
